<?xml version="1.0" standalone="no"?>
<!DOCTYPE svg PUBLIC "-//W3C//DTD SVG 20010904//EN"
 "http://www.w3.org/TR/2001/REC-SVG-20010904/DTD/svg10.dtd">
<svg version="1.0" xmlns="http://www.w3.org/2000/svg"
 width="3900.000000pt" height="3900.000000pt" viewBox="0 0 3900.000000 3900.000000"
 preserveAspectRatio="xMidYMid meet">
<metadata>
Created by potrace 1.16, written by Peter Selinger 2001-2019
</metadata>
<g transform="translate(0.000000,3900.000000) scale(0.100000,-0.100000)"
fill="#000000" stroke="none">
<path d="M34292 35048 c-84 -36 -162 -101 -216 -182 -19 -29 -81 -141 -137
-247 -173 -331 -314 -526 -529 -732 -136 -131 -218 -190 -294 -212 -28 -9
-109 -25 -181 -36 -189 -29 -188 -29 -204 -75 -8 -21 -16 -85 -19 -141 -4 -89
-1 -114 22 -195 32 -111 129 -319 191 -406 5 -6 144 51 202 84 158 88 253 221
546 759 232 429 335 587 507 785 151 173 220 341 220 537 0 109 3 107 -108 61z"/>
<path d="M36084 34600 c-28 -11 -64 -58 -64 -82 0 -34 30 -79 62 -93 90 -37
158 72 91 144 -32 34 -59 43 -89 31z"/>
<path d="M28370 32380 c-56 -13 -132 -102 -163 -191 -46 -134 -43 -231 12
-371 56 -141 147 -211 276 -212 65 -1 75 2 149 44 96 55 170 133 190 198 19
66 20 215 1 285 -18 69 -57 148 -97 199 -24 29 -41 39 -80 47 -56 13 -236 13
-288 1z"/>
<path d="M17095 31899 c-11 -17 -3 -305 11 -404 19 -138 71 -285 126 -358 14
-18 15 -18 45 7 45 38 89 108 115 184 32 93 32 239 0 332 -26 76 -81 152 -138
193 -44 31 -150 61 -159 46z"/>
<path d="M26301 30675 c-82 -69 -52 -209 44 -209 98 0 145 164 62 214 -43 26
-69 25 -106 -5z"/>
<path d="M18696 30496 c-21 -19 -36 -43 -36 -56 0 -26 63 -90 88 -90 10 0 32
13 50 29 45 42 45 90 -1 125 -44 34 -58 33 -101 -8z"/>
<path d="M22788 30327 c-45 -37 -58 -77 -57 -169 2 -139 -6 -132 137 -142 68
-4 126 -6 129 -3 7 8 -14 180 -28 232 -6 21 -26 54 -44 72 -41 41 -95 45 -137
10z"/>
<path d="M21344 29956 c-28 -28 -34 -41 -34 -79 0 -107 106 -173 179 -111 57
48 50 136 -15 194 -48 41 -86 40 -130 -4z"/>
<path d="M20457 29861 c-110 -44 -154 -102 -169 -221 -17 -142 27 -231 144
-289 67 -34 147 -41 221 -20 53 14 110 69 137 131 45 106 10 268 -83 373 l-35
40 -83 3 c-64 1 -95 -3 -132 -17z"/>
<path d="M27183 29799 c-69 -20 -95 -108 -53 -177 56 -91 200 -49 200 59 0 51
-23 95 -60 114 -32 17 -41 17 -87 4z"/>
<path d="M32125 29680 c-29 -12 -64 -53 -74 -86 -24 -88 74 -183 165 -160 56
14 99 92 83 150 -21 72 -111 123 -174 96z"/>
<path d="M36552 29536 c-90 -82 -111 -96 -170 -114 -37 -11 -105 -32 -152 -46
-208 -62 -376 -239 -388 -407 l-4 -57 71 -7 c87 -9 180 1 246 26 66 25 135 78
299 231 76 69 176 153 224 186 48 33 100 74 116 91 26 27 28 35 23 78 -4 38
-12 54 -41 80 -29 27 -44 33 -78 32 -40 0 -51 -7 -146 -93z"/>
<path d="M9515 29513 c-22 -2 -50 -14 -63 -26 -35 -32 -79 -106 -97 -165 -17
-52 -17 -53 9 -125 33 -89 93 -199 138 -251 34 -39 34 -39 109 -39 49 0 85 6
106 16 45 24 112 103 145 173 27 58 28 65 17 110 -18 78 -84 207 -131 257 -43
45 -44 46 -118 50 -41 2 -93 2 -115 0z"/>
<path d="M24265 29451 c-255 -74 -466 -296 -560 -591 -31 -98 -38 -219 -16
-310 18 -79 110 -260 185 -364 128 -178 169 -221 242 -257 59 -29 79 -34 165
-37 87 -4 110 -1 206 27 234 69 402 176 495 315 106 159 141 293 132 496 -8
161 -22 230 -60 294 -45 76 -158 226 -221 293 -45 47 -56 54 -162 87 -125 39
-253 66 -310 65 -20 0 -63 -8 -96 -18z"/>
<path d="M31287 29414 c-83 -48 -206 -158 -251 -223 -15 -22 -53 -56 -84 -76
-108 -73 -191 -180 -239 -311 -13 -37 -22 -68 -20 -70 2 -3 35 24 73 58 l68
63 -37 -67 c-20 -38 -34 -68 -32 -68 13 0 136 66 197 106 129 83 277 242 338
364 48 94 95 270 73 270 -4 0 -43 -21 -86 -46z"/>
<path d="M30363 28290 c-28 -17 -33 -25 -33 -58 0 -34 4 -41 33 -57 31 -16 35
-16 65 -1 28 14 32 22 32 56 0 31 -5 43 -29 59 -35 25 -29 25 -68 1z"/>
<path d="M22230 28030 c0 -6 58 -127 130 -268 225 -447 429 -802 717 -1247 60
-93 145 -228 188 -300 128 -213 305 -459 313 -436 5 15 -58 173 -112 280 -69
138 -104 195 -311 501 -104 154 -189 293 -216 350 -59 128 -177 359 -319 625
-65 121 -145 275 -179 342 l-61 122 -57 16 c-32 9 -66 19 -75 21 -10 3 -18 0
-18 -6z"/>
<path d="M34210 27998 c0 -42 21 -98 40 -108 59 -32 140 23 140 95 l0 35 -90
0 c-87 0 -90 -1 -90 -22z"/>
<path d="M34698 28005 c-33 -18 -58 -63 -58 -103 l0 -28 63 4 c34 2 63 5 64 6
0 0 3 30 5 66 3 63 2 65 -22 67 -14 2 -37 -4 -52 -12z"/>
<path d="M29910 27820 c-181 -67 -422 -203 -506 -285 -44 -44 -54 -62 -81
-145 -17 -52 -27 -96 -23 -98 13 -5 185 60 273 104 183 90 306 204 378 348 23
46 40 89 38 94 -2 6 -35 -1 -79 -18z"/>
<path d="M3625 27731 c-11 -5 -33 -23 -49 -40 -25 -26 -30 -40 -30 -79 1 -130
117 -194 201 -109 45 44 52 91 24 151 -32 65 -96 99 -146 77z"/>
<path d="M28503 27529 c-98 -19 -187 -79 -224 -150 -10 -21 -26 -66 -34 -101
-15 -66 -9 -123 19 -177 24 -45 98 -109 161 -138 50 -23 73 -28 142 -28 76 0
84 2 120 31 21 17 52 59 71 95 69 133 50 303 -44 408 -61 67 -108 81 -211 60z"/>
<path d="M30325 27410 c-34 -22 -31 -17 -183 -233 -62 -86 -132 -192 -157
-235 -44 -76 -95 -198 -95 -228 0 -25 72 65 189 239 61 89 140 196 176 237 67
77 109 149 119 208 7 38 -5 41 -49 12z"/>
<path d="M29749 27028 c-67 -55 -108 -112 -116 -162 -6 -39 -6 -39 23 -32 42
10 76 37 101 82 24 41 57 143 50 151 -3 2 -29 -15 -58 -39z"/>
<path d="M17023 27007 c8 -65 41 -132 119 -247 74 -108 98 -151 98 -177 0 -10
-34 -88 -75 -173 -85 -175 -102 -250 -91 -395 3 -44 6 -102 6 -128 0 -27 4
-46 9 -43 12 8 81 154 140 296 72 175 82 190 128 190 32 0 44 -7 89 -55 61
-64 140 -211 183 -341 16 -49 53 -177 81 -284 28 -107 62 -219 76 -249 39 -87
117 -183 249 -307 132 -124 138 -133 138 -229 0 -72 -21 -104 -116 -179 -89
-71 -115 -100 -137 -156 -7 -19 -15 -37 -16 -39 -9 -11 -312 150 -406 216
-169 118 -274 180 -363 215 -69 27 -93 31 -175 32 -77 1 -104 -3 -140 -20 -62
-29 -180 -115 -180 -131 0 -24 61 -136 111 -203 69 -95 221 -237 403 -378 87
-68 165 -126 172 -129 8 -3 92 38 187 90 94 52 191 104 215 116 l42 21 86 -42
c47 -23 89 -49 92 -57 3 -9 40 -95 83 -192 43 -97 87 -208 99 -247 l22 -71
-21 -47 c-28 -63 -86 -138 -140 -180 l-45 -34 -29 27 c-16 16 -40 46 -53 69
-43 73 -59 133 -89 321 -2 12 -7 59 -11 103 -3 44 -10 83 -15 85 -7 5 -102
-27 -127 -44 -11 -7 -4 -38 36 -153 50 -145 84 -282 97 -393 11 -95 42 -180
124 -345 102 -202 122 -262 129 -377 5 -103 -2 -123 -48 -123 -50 0 -72 44
-85 173 l-7 67 -38 0 c-55 0 -160 -35 -206 -69 -51 -36 -64 -78 -64 -207 0
-128 -16 -163 -102 -221 l-63 -43 -123 0 c-122 0 -278 18 -382 45 -30 7 -122
30 -205 51 l-150 37 -155 -43 c-257 -71 -294 -75 -525 -55 -33 3 -168 14 -300
26 -271 23 -593 31 -737 19 -127 -11 -181 -36 -282 -131 l-79 -74 39 -6 c21
-4 77 -10 124 -13 177 -14 411 -42 520 -62 47 -8 139 -29 205 -46 150 -39 287
-41 465 -8 63 11 170 24 238 27 115 6 126 4 172 -17 l50 -23 0 -90 0 -90 -80
7 c-44 3 -80 3 -80 -1 0 -5 11 -64 25 -131 l26 -124 -24 -41 c-39 -66 -130
-145 -291 -252 -233 -154 -389 -314 -552 -565 -149 -230 -227 -463 -220 -656
6 -158 184 -395 412 -547 165 -109 182 -115 374 -123 130 -5 172 -10 200 -24
78 -40 150 -148 172 -256 10 -50 9 -59 -18 -122 -51 -120 -114 -234 -222 -397
-162 -244 -189 -268 -447 -398 -213 -106 -273 -155 -397 -324 -50 -67 -142
-247 -136 -264 5 -15 87 51 245 196 168 155 225 195 306 212 93 19 737 18 831
-2 38 -8 73 -20 77 -26 3 -6 12 -46 19 -88 6 -42 18 -116 26 -166 41 -251 111
-358 358 -545 72 -54 147 -114 166 -132 87 -84 147 -104 332 -112 70 -2 134
-9 143 -13 23 -13 94 -111 125 -173 71 -142 80 -247 35 -395 l-26 -85 -142
-69 c-79 -39 -233 -101 -347 -140 -376 -130 -488 -180 -643 -284 -142 -96
-203 -112 -532 -142 -104 -9 -216 -15 -415 -21 -260 -7 -371 -30 -400 -83 -12
-24 -13 -81 -1 -100 14 -22 216 -8 426 30 228 41 392 44 560 11 220 -43 234
-44 342 -23 54 11 157 33 228 50 196 44 316 56 417 40 29 -5 94 -11 143 -14
50 -3 104 -8 122 -11 31 -5 31 -5 21 -42 -6 -20 -28 -111 -48 -201 l-37 -165
-179 -84 c-195 -92 -370 -154 -479 -172 -207 -34 -293 -54 -335 -75 -62 -32
-353 -355 -538 -598 l-67 -87 -8 77 c-5 43 -10 80 -12 82 -2 2 -50 -24 -107
-57 -129 -75 -195 -108 -275 -138 -60 -23 -62 -23 -68 -5 -12 38 -64 57 -142
52 -35 -2 -90 -56 -97 -96 -4 -19 -11 -35 -17 -35 -5 0 -72 -6 -147 -14 -75
-8 -173 -18 -217 -21 -127 -10 -260 -31 -493 -80 -310 -65 -359 -79 -394 -111
-35 -34 -96 -157 -70 -140 4 2 91 6 192 7 240 3 361 14 491 44 112 26 350 66
509 85 273 34 483 86 663 166 134 59 220 85 443 133 282 62 287 63 295 92 4
13 8 44 8 69 2 73 9 74 84 10 37 -31 85 -65 106 -75 39 -17 41 -17 129 8 49
14 149 48 223 75 287 107 679 197 1024 237 230 27 271 19 373 -65 35 -30 42
-41 42 -73 0 -34 -9 -47 -88 -131 -68 -72 -94 -108 -112 -156 -14 -34 -39 -78
-56 -99 l-32 -36 -193 1 c-135 1 -246 8 -364 23 -233 30 -416 37 -543 21 -56
-7 -104 -16 -107 -20 -6 -9 26 -126 56 -202 l22 -58 74 0 c48 0 137 14 256 39
219 47 370 72 662 107 245 29 324 28 465 -7 47 -11 115 -26 152 -34 l68 -13
20 68 c11 37 20 72 20 77 0 6 6 15 13 21 27 23 192 62 364 87 320 46 418 77
748 233 301 142 442 185 597 180 l87 -3 -63 -157 c-35 -86 -77 -180 -92 -209
l-29 -52 -150 -44 c-146 -42 -391 -121 -409 -131 -5 -3 27 -37 70 -77 l78 -72
118 30 c65 16 121 27 124 25 2 -3 -22 -54 -56 -114 -81 -146 -79 -187 15 -391
44 -95 42 -95 133 -9 66 62 114 141 187 311 64 146 146 289 178 309 21 13 390
106 421 106 8 0 26 -21 42 -47 31 -55 75 -114 116 -158 l28 -31 -69 -84 c-94
-116 -239 -256 -471 -455 -107 -92 -237 -208 -288 -258 -116 -114 -135 -162
-116 -301 6 -44 8 -46 40 -46 49 0 175 29 202 46 14 9 54 79 102 178 43 89 84
167 92 173 7 6 53 23 103 38 166 50 184 64 308 232 42 56 105 132 140 170 l65
68 7 -120 c8 -116 -1 -1565 -10 -1635 -2 -19 -5 -267 -6 -550 -2 -652 -6 -706
-100 -1150 -92 -440 -115 -632 -90 -764 28 -151 120 -246 237 -246 56 0 85 12
132 55 60 53 84 120 90 243 5 109 -2 167 -48 402 -37 190 -84 475 -111 680
-21 156 -22 207 -25 945 -1 429 -5 800 -7 825 -2 25 -8 342 -12 705 l-8 660
44 36 c83 66 110 83 118 70 5 -7 12 -11 17 -10 15 5 113 -35 108 -43 -3 -4 6
-4 19 1 17 7 28 6 38 -4 24 -23 463 -120 560 -124 21 -1 35 -51 50 -175 l13
-100 -50 -44 c-27 -24 -116 -92 -199 -152 -164 -118 -237 -179 -217 -180 52
-1 279 101 461 208 114 67 149 70 238 26 73 -37 98 -80 107 -191 10 -109 31
-177 62 -202 15 -12 34 -21 43 -21 13 0 277 223 566 478 26 23 50 41 52 38 2
-2 -1 -127 -7 -277 -10 -262 -14 -1257 -6 -1309 2 -14 7 -99 11 -189 4 -89 8
-170 10 -180 1 -9 6 -71 10 -137 9 -161 -7 -218 -150 -517 -123 -260 -150
-353 -149 -522 0 -66 5 -131 10 -144 10 -23 11 -22 59 30 90 101 161 224 226
394 l38 100 2 -110 c2 -204 0 -212 -41 -294 -48 -97 -90 -214 -90 -252 0 -65
63 -149 111 -149 19 0 20 -5 15 -113 -26 -558 -26 -1784 -1 -1987 10 -75 13
-903 4 -1045 -10 -178 -34 -397 -55 -515 -24 -133 -50 -229 -124 -455 -108
-332 -130 -433 -130 -607 0 -184 29 -280 112 -365 59 -60 126 -87 213 -87 88
1 146 27 210 95 89 95 128 225 129 429 0 115 -3 139 -43 295 -92 367 -153 672
-185 925 -33 257 -41 375 -52 815 -4 138 -8 264 -9 280 -9 96 -12 681 -5 790
5 72 11 171 14 220 3 50 8 293 11 540 9 756 12 823 34 853 37 54 54 99 101
272 27 98 84 274 128 391 103 275 130 364 147 474 7 50 12 91 11 92 -1 2 -24
-11 -49 -27 -62 -39 -99 -99 -238 -376 -61 -123 -113 -223 -114 -222 -5 5 -15
266 -15 383 -1 99 4 128 44 283 29 113 56 192 77 230 21 36 86 110 178 202
192 191 226 237 250 331 10 41 22 102 26 137 4 39 12 65 21 69 22 8 98 -42
127 -84 49 -72 53 -90 29 -121 -98 -123 -193 -293 -247 -442 -30 -85 -67 -240
-56 -240 4 0 29 14 55 31 93 59 184 170 265 324 l32 60 -6 -195 c-3 -107 -8
-235 -10 -285 -3 -49 -7 -160 -10 -245 -3 -85 -8 -182 -10 -215 -2 -33 -7
-145 -10 -250 -5 -131 -14 -232 -30 -325 -28 -155 -39 -242 -55 -425 -27 -309
-42 -385 -87 -426 -15 -14 -69 -54 -120 -88 -113 -76 -179 -145 -189 -195 -12
-67 3 -112 90 -275 93 -171 151 -256 217 -316 45 -40 131 -85 166 -85 20 0 22
-7 30 -98 9 -108 9 -882 0 -1947 -4 -438 -2 -758 4 -855 13 -191 17 -919 6
-1055 -26 -328 -59 -498 -153 -788 -105 -322 -131 -465 -114 -619 13 -112 34
-168 83 -224 110 -125 284 -125 395 1 69 78 104 203 105 370 0 73 -9 125 -46
280 -173 715 -194 909 -213 1995 -4 208 -2 400 5 505 21 332 34 1830 18 2243
l-7 204 41 46 c119 136 194 371 169 530 -6 37 -29 144 -50 237 -21 94 -44 201
-50 239 -10 66 -15 269 -7 284 3 4 8 63 12 131 4 69 8 132 10 140 1 9 6 77 10
151 3 74 8 142 10 150 2 8 6 74 10 145 3 72 8 146 10 165 2 19 6 76 10 125 3
50 8 110 10 135 2 25 7 79 10 120 12 141 45 415 65 525 10 61 31 187 45 280
137 880 216 1215 381 1613 65 156 114 292 114 318 0 8 12 16 28 19 15 4 45 10
67 15 22 5 84 17 139 25 54 9 108 20 121 25 13 5 26 6 29 3 3 -4 6 -1 6 6 0 7
4 10 8 7 5 -3 26 1 48 9 21 8 45 14 52 15 9 0 12 -65 12 -291 l0 -291 -39 -45
c-22 -24 -43 -57 -46 -73 -8 -37 16 -83 55 -107 l30 -17 0 -736 c0 -404 1
-2328 2 -4275 1 -2548 4 -3204 9 -2340 3 660 7 2578 8 4262 l1 3063 37 33 c31
29 37 41 41 89 5 64 -15 112 -53 130 l-25 11 0 299 c0 230 3 299 13 302 84 23
271 98 287 116 3 3 16 11 30 18 38 20 92 71 85 82 -3 5 0 12 6 16 8 5 9 3 4
-6 -6 -9 -4 -11 4 -6 7 5 10 14 7 22 -3 8 -3 14 -1 14 12 0 85 -163 155 -345
43 -110 92 -231 109 -270 39 -84 47 -160 32 -270 -19 -131 -25 -351 -12 -455
14 -117 59 -307 74 -317 6 -4 41 -8 79 -11 64 -4 67 -3 72 20 16 68 27 342 25
620 -2 291 -1 319 19 390 44 160 78 207 284 390 207 183 337 267 425 275 73 6
178 -19 205 -50 71 -83 90 -177 86 -422 -2 -101 0 -186 4 -190 6 -6 87 13 101
25 14 12 42 263 77 700 5 63 10 167 10 231 l0 117 116 123 c159 170 240 280
377 516 190 326 304 583 323 727 4 28 12 46 20 46 21 0 186 -61 246 -91 61
-31 122 -80 139 -111 6 -11 15 -92 20 -181 5 -89 12 -169 15 -178 6 -21 103
-73 177 -94 32 -9 60 -15 61 -13 2 1 31 58 66 125 34 68 69 128 76 134 18 15
122 -5 178 -33 56 -29 134 -105 161 -158 12 -25 57 -135 100 -245 111 -287
152 -369 351 -701 176 -295 286 -455 360 -526 l39 -37 82 50 81 49 -15 58
c-23 87 -85 213 -169 340 -42 63 -119 190 -171 281 -94 164 -145 241 -317 475
-152 208 -193 322 -203 561 -6 146 8 228 52 315 30 59 51 70 139 70 136 0 202
-38 416 -244 136 -130 240 -218 240 -202 0 3 -11 30 -24 60 -35 79 -98 172
-225 331 -203 254 -224 307 -197 500 9 64 16 120 16 125 0 4 -23 13 -51 20
-65 16 -109 52 -109 90 0 27 5 30 80 55 43 14 103 29 133 32 l54 5 6 -44 c9
-63 53 -197 77 -233 l20 -30 -1 55 c0 52 -7 100 -24 163 -8 29 -7 29 56 -18
71 -53 101 -69 142 -79 l27 -6 0 141 c0 129 1 141 17 135 9 -4 67 -10 129 -13
121 -6 188 7 248 50 l29 21 54 -29 c29 -15 113 -70 186 -122 138 -99 254 -169
264 -160 3 3 -6 39 -19 79 -28 84 -21 78 -219 183 -87 46 -153 90 -195 128
-55 50 -104 112 -104 131 0 20 156 78 330 121 58 15 107 29 109 31 3 2 -13 22
-34 44 -22 22 -35 40 -30 40 6 0 52 -7 104 -15 52 -9 96 -14 98 -12 6 7 -120
97 -242 175 -127 80 -128 82 -95 190 l20 70 51 12 c102 25 305 11 458 -30 38
-10 41 -13 41 -44 0 -19 9 -63 20 -98 38 -124 134 -197 317 -244 141 -36 193
-35 273 4 160 76 306 300 286 437 -15 99 -109 236 -223 328 -55 43 -80 56
-127 65 -127 25 -268 8 -327 -38 -35 -28 -36 -28 -92 -15 -31 7 -57 10 -57 6
0 -4 13 -22 29 -41 l28 -34 -38 -56 c-20 -30 -46 -78 -57 -105 -11 -28 -27
-51 -35 -53 -20 -4 -257 61 -356 98 -141 52 -221 92 -221 110 0 27 72 131 127
181 27 26 82 68 123 95 l73 49 -189 5 c-245 6 -253 10 -410 200 -36 44 -82 93
-101 109 -36 29 -36 30 -24 73 7 24 15 102 18 175 l6 132 71 -36 c39 -20 106
-51 150 -70 l78 -33 -7 27 c-8 33 -32 68 -112 162 -64 76 -96 142 -127 267
-21 82 -20 113 5 203 20 71 21 98 3 172 -5 24 -3 27 33 34 76 14 85 45 13 45
-27 0 -50 3 -50 8 0 4 12 25 27 46 l26 39 -28 23 c-15 12 -77 42 -136 66 -60
23 -109 48 -109 54 0 24 -42 64 -67 64 -16 0 -42 15 -68 39 -36 33 -55 42
-121 56 -44 9 -89 21 -101 27 -11 6 -25 8 -30 5 -15 -9 -415 52 -456 70 -39
17 -77 57 -97 103 -9 21 -10 17 -5 -25 2 -27 10 -104 17 -170 13 -128 17 -782
5 -900 -3 -38 -9 -104 -13 -145 -4 -41 -11 -78 -16 -81 -6 -4 -6 -9 1 -13 6
-4 9 -10 7 -14 -2 -4 -7 -32 -11 -62 -3 -30 -13 -98 -22 -150 -9 -52 -16 -105
-17 -117 -1 -13 -4 -23 -8 -23 -4 0 -5 -7 -2 -15 4 -8 2 -21 -3 -28 -5 -6 -9
-28 -8 -49 0 -20 -3 -34 -6 -32 -4 2 -9 -15 -12 -39 -3 -23 -7 -53 -10 -67 -3
-14 -8 -41 -11 -60 -4 -19 -11 -39 -17 -45 -5 -5 -9 -20 -9 -35 0 -14 -7 -38
-15 -54 -8 -16 -16 -44 -18 -62 -1 -19 -6 -34 -10 -34 -5 0 -6 -4 -3 -9 6 -9
-14 -68 -36 -106 -8 -14 -8 -20 0 -23 7 -2 4 -17 -9 -42 -11 -21 -21 -50 -23
-64 -1 -14 -6 -29 -11 -34 -4 -4 -5 -1 0 7 5 10 4 12 -3 7 -8 -5 -9 -13 -2
-26 7 -13 6 -21 -5 -30 -13 -11 -38 -78 -40 -105 0 -5 -6 -15 -14 -21 -8 -6
-14 -25 -13 -43 0 -17 -3 -31 -8 -31 -5 0 -7 -9 -5 -20 2 -11 0 -18 -6 -15 -5
4 -9 -2 -9 -12 -1 -21 -34 -95 -41 -89 -2 2 -5 -6 -5 -19 -1 -12 -15 -51 -32
-86 -16 -35 -32 -77 -36 -92 -4 -15 -10 -26 -15 -23 -4 3 -8 0 -8 -7 0 -7 -12
-37 -26 -68 -14 -31 -23 -60 -20 -63 4 -3 0 -6 -7 -6 -7 0 -11 -3 -7 -6 3 -3
-3 -16 -14 -27 -13 -14 -18 -30 -14 -44 4 -16 1 -22 -7 -21 -7 2 -12 -3 -10
-10 1 -7 -5 -15 -13 -18 -8 -3 -12 -10 -9 -16 3 -5 -2 -18 -12 -29 -9 -10 -13
-19 -8 -19 5 0 1 -5 -9 -11 -15 -9 -16 -13 -5 -27 9 -11 10 -14 1 -8 -9 5 -19
-5 -30 -28 -9 -20 -21 -32 -27 -29 -6 4 -5 -1 3 -10 12 -16 12 -17 -5 -10 -17
6 -18 5 -4 -12 8 -10 10 -16 5 -13 -6 4 -15 -4 -21 -17 -10 -20 -9 -22 5 -17
9 3 3 -5 -12 -19 -15 -13 -29 -34 -30 -46 -1 -14 -5 -19 -12 -13 -7 6 -11 2
-11 -10 0 -10 5 -16 10 -13 5 4 6 1 2 -6 -5 -7 -15 -10 -23 -7 -8 3 -11 1 -8
-5 4 -6 0 -18 -8 -27 -8 -9 -24 -36 -37 -59 -13 -23 -28 -39 -33 -36 -6 3 -7
1 -3 -6 4 -6 -4 -25 -19 -42 -24 -29 -25 -32 -8 -44 15 -11 13 -13 -15 -10
-32 3 -32 2 -16 -17 17 -18 17 -19 -1 -12 -14 6 -17 4 -12 -9 3 -9 3 -16 -1
-14 -4 1 -8 -2 -9 -6 -1 -4 -10 -15 -18 -24 -9 -9 -14 -25 -12 -35 5 -16 3
-17 -9 -7 -16 13 -19 -1 -4 -19 7 -9 7 -9 -2 -2 -15 12 -31 13 -24 1 3 -5 -1
-12 -10 -15 -9 -4 -14 -13 -10 -21 3 -8 1 -15 -4 -15 -6 0 -10 -7 -10 -15 0
-9 -10 -20 -22 -25 -14 -5 -17 -9 -8 -10 9 -1 6 -5 -7 -10 -14 -6 -21 -15 -17
-24 3 -7 -3 -20 -14 -27 -10 -8 -24 -27 -30 -44 -6 -17 -11 -22 -11 -13 -1 10
-17 138 -36 285 l-35 267 32 51 c220 347 492 893 633 1269 50 135 115 366 160
566 42 186 105 523 105 558 0 44 -258 377 -467 604 -116 126 -471 469 -523
505 -19 13 -24 13 -35 2 -7 -8 -115 -131 -240 -274 -125 -143 -262 -298 -304
-345 -471 -523 -756 -822 -900 -942 l-43 -37 41 -373 c64 -580 70 -667 83
-1252 l12 -549 104 7 c168 11 511 52 762 92 129 20 250 38 268 39 18 1 36 5
39 9 10 10 25 7 18 -4 -3 -5 0 -10 7 -11 7 0 4 -5 -7 -10 -16 -7 -14 -8 10 -4
17 3 48 7 70 10 22 3 62 9 88 14 44 8 48 7 52 -13 5 -20 75 -368 75 -371 0 -1
-10 -13 -21 -26 -19 -22 -58 -76 -84 -118 -5 -9 -29 -42 -52 -73 -24 -31 -43
-60 -43 -65 0 -4 -12 -20 -27 -36 -16 -17 -21 -26 -13 -22 8 5 4 -3 -10 -16
-14 -14 -35 -38 -48 -55 -13 -16 -21 -21 -18 -11 3 10 2 15 -4 12 -5 -3 -8
-16 -6 -27 2 -14 -8 -31 -31 -51 -18 -16 -33 -35 -33 -42 0 -8 -8 -20 -18 -27
-28 -21 -72 -85 -64 -93 4 -5 2 -5 -5 -1 -16 9 -67 -59 -57 -76 4 -7 4 -10 -1
-6 -4 4 -15 2 -25 -5 -23 -17 -88 -93 -70 -82 8 5 2 -4 -13 -20 -15 -16 -26
-34 -23 -41 5 -13 -27 -48 -36 -39 -3 3 -18 -9 -33 -27 -16 -18 -32 -32 -37
-30 -5 1 -7 -2 -4 -7 4 -5 -10 -19 -29 -31 -19 -12 -35 -25 -35 -29 0 -11
-249 -210 -385 -308 -564 -407 -1194 -717 -1835 -902 -610 -175 -1190 -251
-1824 -238 -675 14 -1296 130 -1926 359 -1016 370 -1941 1032 -2615 1868 -40
50 -79 88 -94 93 -58 17 -303 10 -431 -13 -163 -28 -267 -28 -344 0 -73 28
-90 54 -112 179 -9 53 -26 121 -39 152 l-22 57 43 87 c24 49 58 109 75 136 31
44 41 51 153 96 98 40 125 56 143 82 l22 33 -27 51 c-15 29 -28 55 -30 59 -2
3 113 -52 254 -124 l257 -131 -6 44 c-4 24 -20 134 -36 244 -67 455 -84 721
-85 1355 l-2 515 -80 115 c-343 491 -467 741 -612 1238 l-57 193 -19 -23 c-56
-69 -198 -273 -237 -339 l-44 -77 3 87 c1 47 9 158 18 246 92 990 428 1935
984 2765 154 229 197 285 203 263 3 -10 18 -81 33 -158 15 -77 28 -142 30
-144 2 -2 90 33 197 78 284 118 613 239 1320 482 l128 44 77 100 c383 499 608
752 1085 1221 l298 292 -33 11 c-18 5 -121 33 -229 61 l-196 52 -79 -31 -79
-31 -45 44 c-94 90 -153 117 -360 165 -101 23 -209 40 -305 48 -63 5 -77 2
-135 -24 -36 -16 -109 -55 -163 -86 -164 -95 -254 -129 -482 -182 -215 -50
-311 -93 -386 -172 -50 -52 -79 -100 -180 -303 -48 -97 -111 -210 -138 -253
l-51 -77 -49 0 c-165 0 -391 67 -613 182 -130 67 -180 137 -293 408 -105 254
-143 329 -270 545 -172 292 -228 395 -290 535 -31 69 -98 202 -151 295 -85
152 -127 234 -291 575 -59 121 -126 191 -198 209 -28 6 -92 11 -144 10 l-93
-3 5 -49z m5357 -13547 c124 -17 491 -50 548 -50 28 0 52 -3 52 -7 -1 -41
-136 -206 -240 -293 l-48 -40 -88 36 c-49 19 -109 47 -134 61 -69 41 -140 113
-166 168 -30 63 -32 136 -5 135 3 0 40 -5 81 -10z m1515 -146 c13 -57 16 -106
13 -202 -5 -121 -7 -133 -53 -257 -109 -299 -118 -339 -130 -565 -18 -354 -66
-518 -228 -790 l-87 -145 -1 105 c-1 58 -2 116 -2 130 0 41 15 511 19 555 1
22 7 247 14 500 6 253 13 524 16 603 l6 142 208 0 209 0 16 -76z m203 -780
c42 -20 84 -51 102 -72 28 -35 30 -41 30 -125 0 -73 -4 -95 -22 -127 -13 -22
-26 -40 -29 -40 -6 0 -141 301 -168 373 -14 37 -1 36 87 -9z m297 -821 c-3
-38 -8 -90 -10 -118 -3 -27 -12 -129 -20 -225 -9 -96 -18 -179 -21 -185 -2 -5
-2 105 1 246 4 240 6 260 27 303 12 25 24 46 26 46 2 0 1 -30 -3 -67z"/>
<path d="M19300 26824 c-14 -9 -33 -27 -44 -41 -18 -24 -18 -26 0 -65 35 -78
83 -86 143 -24 l34 35 -18 41 c-30 67 -67 84 -115 54z"/>
<path d="M20380 26768 c-12 -29 -27 -83 -33 -120 -23 -150 39 -258 149 -258
l36 0 -6 123 c-4 67 -14 147 -22 178 -16 58 -65 129 -88 129 -8 0 -24 -24 -36
-52z"/>
<path d="M24282 26770 c10 -14 54 -83 99 -155 153 -243 166 -255 279 -255 l62
0 -7 33 c-13 61 -42 113 -81 144 -34 26 -323 229 -357 250 -7 4 -4 -4 5 -17z"/>
<path d="M17879 26703 c-32 -8 -39 -103 -9 -133 24 -24 87 -27 115 -6 27 20
28 112 1 132 -19 13 -71 17 -107 7z"/>
<path d="M31242 26684 c-78 -39 -126 -108 -172 -249 -39 -120 -65 -164 -175
-290 -34 -38 -97 -115 -142 -170 -44 -55 -100 -119 -125 -141 -47 -43 -38 -41
-203 -61 -67 -8 -153 -31 -197 -54 -23 -12 -94 -44 -158 -71 -157 -67 -223
-106 -304 -177 -80 -71 -120 -95 -238 -146 -97 -41 -102 -47 -188 -211 -50
-96 -68 -107 -192 -124 -45 -6 -98 -19 -117 -28 -61 -29 -182 -159 -231 -250
-70 -128 -102 -174 -139 -199 -60 -40 -63 -30 -20 67 l40 90 -24 32 c-41 55
-59 98 -59 144 0 37 11 61 65 147 68 108 121 206 115 213 -3 2 -43 -2 -91 -8
-48 -6 -90 -9 -93 -5 -10 9 32 135 69 207 18 36 59 104 90 152 32 49 92 154
134 235 l77 147 14 -34 c14 -34 17 -72 26 -274 3 -79 8 -102 23 -117 65 -65
192 17 275 178 36 69 108 244 108 263 0 5 -16 10 -35 10 -78 0 -190 58 -242
126 -24 32 -28 48 -34 143 -8 131 -20 161 -65 161 -38 0 -33 12 -73 -170 -33
-151 -61 -223 -122 -310 -46 -66 -92 -100 -133 -100 -21 0 -26 5 -26 23 0 50
35 139 122 307 95 185 172 356 183 405 l7 30 -26 -30 c-53 -60 -106 -145 -184
-291 -44 -82 -117 -214 -164 -294 -145 -247 -179 -309 -275 -504 -52 -103
-119 -229 -150 -279 l-57 -91 -13 31 c-7 17 -39 118 -72 225 -70 222 -126 368
-153 398 -11 12 -31 20 -50 20 l-31 0 7 -74 c4 -40 8 -163 11 -272 4 -227 -10
-366 -45 -435 -13 -24 -69 -91 -125 -149 -56 -58 -144 -162 -195 -233 -57 -79
-96 -125 -103 -120 -7 4 -65 42 -131 86 -225 150 -518 317 -761 434 l-100 48
-20 59 -20 58 45 40 c25 21 97 78 160 126 156 118 155 117 325 238 83 59 220
158 305 219 281 203 388 265 458 265 9 0 47 -26 86 -59 106 -87 207 -161 221
-161 26 0 146 251 175 366 30 116 27 156 -19 240 -85 152 -192 232 -294 221
-64 -8 -67 -11 -163 -197 -40 -77 -94 -170 -119 -206 -50 -70 -152 -162 -284
-256 l-83 -59 -20 20 c-15 17 -23 19 -38 11 -21 -11 -27 -45 -10 -55 17 -11 3
-22 -98 -79 -77 -44 -271 -136 -286 -136 -2 0 -6 22 -9 50 -9 74 -41 140 -67
140 -22 0 -22 -2 -15 -92 3 -51 9 -100 11 -110 6 -19 -1 -21 -286 -102 -238
-67 -454 -140 -580 -196 -52 -23 -107 -46 -121 -51 -21 -8 -58 -2 -178 31 -83
23 -158 40 -165 38 -18 -4 -516 -459 -516 -471 0 -5 67 -134 149 -286 340
-633 520 -992 643 -1285 28 -67 52 -123 54 -125 1 -1 65 -16 141 -32 361 -77
706 -170 984 -265 175 -60 640 -242 879 -344 80 -34 150 -64 156 -67 13 -5
209 350 293 528 64 137 129 304 182 467 l42 133 30 -28 c47 -45 235 -267 341
-403 101 -130 323 -455 391 -572 22 -38 42 -68 45 -68 4 0 40 35 81 78 75 78
230 222 239 222 3 0 6 -14 7 -31 5 -67 71 -130 138 -132 90 -3 154 112 110
197 -9 16 -14 29 -13 30 2 1 32 16 68 33 91 46 188 122 262 205 35 39 127 137
206 219 78 82 142 153 142 159 0 13 -5 13 -92 -5 -119 -25 -221 -63 -371 -138
l-142 -71 -145 -147 c-128 -130 -203 -189 -239 -189 -5 0 -22 21 -37 48 -15
26 -33 56 -40 67 -13 20 -12 21 49 21 101 0 97 -5 97 138 0 68 -3 132 -6 141
-12 31 -84 58 -152 58 l-63 -1 77 72 c113 104 192 165 286 220 118 70 183 121
218 174 16 25 28 47 25 50 -7 7 -101 -45 -185 -101 -87 -59 -155 -87 -209 -87
l-39 0 13 50 c27 103 50 136 140 196 46 30 164 91 262 136 98 44 193 92 211
105 18 14 57 57 87 97 92 125 120 139 240 124 33 -4 85 -10 115 -14 l55 -6 36
54 c20 29 71 118 114 198 118 221 155 266 340 407 55 42 128 101 162 130 63
55 141 162 161 221 l11 33 -30 -18 c-17 -10 -74 -53 -127 -95 l-97 -77 -37 41
c-21 22 -38 50 -38 62 0 11 14 71 31 131 28 101 32 128 39 325 6 148 13 231
24 265 8 28 54 110 100 184 90 141 124 215 133 293 7 58 0 60 -75 22z m-3212
-1780 c0 -43 -4 -50 -60 -105 l-60 -59 -13 28 c-7 15 -20 46 -27 70 -13 41
-13 44 12 69 25 25 68 40 121 42 26 1 27 -1 27 -45z"/>
<path d="M11850 26651 c0 -17 94 -136 154 -197 34 -33 149 -130 256 -216 126
-100 275 -233 421 -375 233 -227 334 -311 454 -379 117 -67 104 -67 227 -7
l110 53 -30 38 c-48 60 -181 184 -262 244 -41 31 -140 97 -220 147 -294 183
-409 262 -567 395 -235 195 -333 257 -460 290 -70 18 -83 19 -83 7z"/>
<path d="M4820 26275 c0 -30 320 -358 461 -472 129 -105 360 -253 394 -253 4
0 -13 28 -37 62 -64 91 -219 251 -333 342 -122 98 -485 338 -485 321z"/>
<path d="M3690 26237 c-14 -6 -35 -32 -48 -57 -54 -103 12 -255 109 -252 69 2
116 91 98 187 -11 58 -21 77 -60 109 -34 29 -61 32 -99 13z"/>
<path d="M21682 26127 c-53 -30 -72 -108 -36 -149 58 -63 140 -62 177 2 32 54
11 112 -53 145 -35 18 -58 18 -88 2z"/>
<path d="M25692 26102 c-49 -38 -44 -120 9 -147 15 -8 51 -15 80 -15 l51 0 -4
65 c-3 50 -9 70 -28 90 -28 30 -74 33 -108 7z"/>
<path d="M8200 26092 c-25 -3 -164 -39 -268 -68 -29 -9 -50 -19 -47 -24 9 -15
169 -97 260 -133 116 -46 220 -72 370 -92 157 -21 527 -82 844 -140 139 -25
256 -44 258 -41 9 9 -114 97 -182 130 -89 43 -168 66 -385 111 -218 46 -257
59 -455 152 -237 112 -273 122 -395 105z"/>
<path d="M34743 25881 c-67 -23 -136 -69 -250 -169 -180 -157 -222 -176 -429
-191 -169 -13 -231 -28 -353 -87 -72 -35 -109 -61 -161 -114 -64 -63 -69 -71
-75 -124 -10 -77 -1 -133 25 -161 45 -48 242 -58 385 -19 164 44 273 127 380
289 117 179 131 193 276 280 73 44 161 106 195 138 53 49 64 65 73 108 18 80
19 80 -66 50z"/>
<path d="M7675 25838 c-50 -7 -65 -14 -100 -48 -22 -22 -56 -65 -74 -95 -31
-51 -33 -60 -32 -138 5 -293 117 -641 280 -867 87 -121 116 -150 149 -150 80
0 176 60 211 133 24 50 37 208 35 443 -3 259 -49 509 -108 587 -83 108 -209
156 -361 135z"/>
<path d="M17130 25793 c-45 -16 -54 -85 -15 -127 13 -14 33 -26 43 -26 53 0
71 92 27 135 -25 26 -29 27 -55 18z"/>
<path d="M10933 25645 c-46 -20 -63 -79 -38 -135 23 -52 72 -70 126 -47 74 30
71 158 -5 185 -40 15 -43 15 -83 -3z"/>
<path d="M28912 25457 c-46 -59 -87 -144 -97 -198 -6 -33 -4 -39 23 -58 40
-28 87 -38 95 -18 3 8 10 68 16 133 6 65 13 136 15 157 2 20 1 37 -4 37 -4 0
-26 -24 -48 -53z"/>
<path d="M32988 25435 c-3 -3 -47 -15 -99 -26 -67 -16 -133 -22 -231 -24 -131
-1 -139 -3 -200 -33 -35 -17 -80 -49 -101 -70 -32 -33 -40 -49 -46 -97 -5 -32
-7 -68 -6 -79 1 -12 3 -42 4 -68 l1 -48 98 0 c137 0 171 18 332 180 69 69 161
157 205 197 45 40 73 72 64 72 -9 1 -18 -1 -21 -4z"/>
<path d="M11328 25384 c-39 -13 -49 -20 -58 -49 -31 -94 60 -159 147 -105 65
39 77 110 26 150 -29 23 -50 24 -115 4z"/>
<path d="M31925 25331 c-16 -10 -86 -53 -153 -95 -68 -42 -176 -104 -240 -137
-64 -33 -137 -76 -163 -95 -58 -43 -155 -147 -141 -152 14 -4 164 72 307 158
141 84 236 131 324 163 76 26 98 52 110 125 9 58 4 63 -44 33z"/>
<path d="M11947 25155 c33 -23 244 -127 406 -199 361 -162 538 -274 685 -436
60 -67 88 -123 97 -195 3 -27 8 -64 11 -81 4 -28 0 -33 -46 -58 -100 -55 -200
-44 -385 41 -144 66 -226 100 -259 107 l-28 7 22 -28 c12 -15 83 -95 158 -177
245 -268 553 -537 817 -715 116 -78 139 -89 210 -104 212 -46 435 -21 737 82
212 72 250 91 277 140 53 96 27 186 -99 346 -111 141 -113 145 -106 223 3 37
9 117 12 178 6 104 5 115 -16 160 -57 119 -252 254 -560 387 -308 133 -534
184 -855 193 -312 8 -407 19 -850 99 -104 19 -203 37 -220 40 -29 5 -29 5 -8
-10z"/>
<path d="M10848 24663 c48 -102 93 -176 165 -273 78 -106 271 -303 390 -399
77 -63 78 -63 99 -45 17 15 16 12 -4 -16 -35 -46 -88 -159 -88 -186 0 -45 42
-155 82 -215 24 -35 108 -129 188 -209 94 -93 186 -197 256 -290 142 -188 225
-275 337 -351 155 -107 225 -125 351 -93 118 30 223 112 279 219 29 55 32 67
31 150 -1 105 -17 157 -122 407 -38 90 -77 188 -87 218 -24 76 -95 209 -163
305 -79 111 -353 385 -385 385 -47 0 -189 -31 -273 -60 -128 -43 -237 -107
-333 -194 -19 -17 1 13 44 69 43 55 105 141 138 190 l59 90 -52 48 c-113 104
-298 204 -465 251 -113 32 -274 56 -387 56 l-87 0 27 -57z"/>
<path d="M31309 24351 c-49 -48 -53 -93 -13 -140 22 -26 33 -31 70 -31 36 0
51 6 82 34 33 30 37 40 37 81 0 61 -35 95 -97 95 -34 0 -47 -6 -79 -39z"/>
<path d="M16176 24157 c-26 -21 -28 -27 -21 -64 6 -36 12 -43 43 -56 34 -14
38 -13 64 7 20 15 27 30 27 56 1 43 -7 56 -42 69 -37 14 -38 14 -71 -12z"/>
<path d="M10663 24138 c-61 -9 -143 -45 -143 -62 1 -19 33 -53 70 -72 52 -26
186 -24 262 5 67 26 75 35 58 67 -28 52 -138 80 -247 62z"/>
<path d="M8854 24083 c-18 -3 -22 -13 -28 -65 -3 -34 -6 -83 -6 -110 0 -44 3
-50 33 -68 49 -31 183 -69 272 -78 137 -15 276 -1 469 45 95 22 107 27 92 39
-31 22 -258 121 -364 158 -153 53 -389 93 -468 79z"/>
<path d="M7988 23919 c-18 -7 -32 -24 -43 -52 -14 -38 -15 -46 0 -80 11 -26
26 -41 52 -52 34 -15 41 -14 74 1 26 11 41 27 52 54 13 35 13 42 -3 77 -25 56
-71 74 -132 52z"/>
<path d="M9800 23887 c-51 -12 -53 -14 -33 -25 12 -7 183 -66 380 -131 197
-66 417 -139 488 -164 158 -54 266 -72 389 -64 142 9 281 56 361 120 l29 25
-34 21 c-47 28 -189 79 -270 96 -64 13 -178 25 -457 45 -141 10 -349 38 -493
66 -106 21 -293 26 -360 11z"/>
<path d="M30891 23636 c-46 -47 -47 -52 -24 -100 16 -35 17 -35 49 -21 18 7
58 30 89 50 54 34 56 37 43 57 -8 12 -37 29 -65 39 l-51 17 -41 -42z"/>
<path d="M32481 22858 c1 -35 7 -66 13 -70 6 -4 37 -8 69 -8 51 0 57 2 57 20
0 63 -53 120 -110 120 l-31 0 2 -62z"/>
<path d="M9283 22734 c-47 -16 -93 -66 -93 -100 0 -79 121 -145 204 -110 64
27 96 113 60 164 -32 46 -109 67 -171 46z"/>
<path d="M13715 22519 c-114 -22 -191 -66 -272 -152 -53 -57 -129 -174 -119
-184 8 -8 149 -45 265 -69 160 -33 295 -35 366 -6 62 25 127 60 223 122 l73
47 -118 82 c-202 142 -309 182 -418 160z"/>
<path d="M30352 22459 c-37 -14 -141 -124 -162 -171 -26 -59 -12 -153 40 -272
l21 -47 97 6 c53 3 123 13 155 21 32 8 60 14 63 14 7 0 31 56 38 90 3 19 3 75
0 124 -7 90 -7 90 -53 139 -73 79 -149 115 -199 96z"/>
<path d="M13119 22283 c-34 -9 -40 -102 -9 -133 22 -22 52 -25 98 -9 27 9 32
17 38 55 9 65 -13 94 -69 93 -23 -1 -49 -3 -58 -6z"/>
<path d="M29786 22281 c-19 -4 -37 -18 -47 -36 -22 -37 -36 -145 -20 -145 23
0 87 39 118 72 27 27 63 93 63 113 0 7 -77 4 -114 -4z"/>
<path d="M11167 22259 c-49 -8 -98 -42 -182 -129 -33 -34 -37 -42 -25 -51 129
-85 232 -129 305 -129 42 0 51 5 98 49 29 27 76 83 104 124 l52 74 -102 28
c-128 34 -189 42 -250 34z"/>
<path d="M29441 22034 c-25 -86 -21 -119 12 -108 79 24 108 63 87 114 -12 28
-53 70 -70 70 -4 0 -17 -34 -29 -76z"/>
<path d="M12810 22034 c-284 -37 -361 -86 -495 -317 l-28 -49 124 7 c297 16
549 46 714 86 96 24 263 78 269 87 2 4 7 39 10 78 l7 72 -33 6 c-18 3 -58 8
-88 12 -30 3 -66 8 -80 10 -39 6 -361 13 -400 8z"/>
<path d="M32705 21971 c-55 -16 -113 -33 -128 -40 -39 -15 -44 -14 -50 10 -4
16 -12 20 -39 17 -30 -3 -33 -6 -36 -38 -3 -34 -33 -69 -58 -70 -7 0 -15 21
-19 46 -4 28 -11 44 -18 41 -17 -5 -44 -57 -51 -98 -5 -30 -2 -42 19 -67 14
-17 41 -36 59 -42 39 -12 189 -40 195 -35 11 12 -21 64 -52 84 l-37 24 74 24
c84 26 187 91 224 141 14 17 23 32 21 31 -2 0 -49 -13 -104 -28z"/>
<path d="M21529 21982 c-36 -3 -38 -6 -82 -100 -25 -53 -104 -218 -175 -367
-411 -858 -619 -1378 -798 -1999 -45 -156 -52 -191 -42 -205 103 -133 621
-662 838 -856 294 -262 666 -540 1201 -895 l206 -138 229 166 c572 413 1027
758 1225 929 140 120 494 442 643 585 l100 94 -288 1210 c-288 1209 -362 1513
-370 1521 -3 3 -823 21 -2501 55 -82 2 -166 2 -186 0z m151 -44 c0 -4 -5 -8
-11 -8 -5 0 -7 -4 -4 -10 3 -5 -2 -10 -12 -11 -13 -1 -11 -3 7 -9 17 -5 19 -8
8 -9 -10 -1 -17 -4 -16 -8 4 -15 -36 -163 -44 -163 -4 0 -11 -18 -14 -40 -4
-22 -10 -40 -15 -40 -4 0 -15 -25 -24 -55 -8 -30 -20 -55 -25 -55 -6 0 -10
-11 -10 -25 0 -14 -6 -25 -13 -25 -7 0 -21 -16 -32 -37 -11 -20 -57 -74 -103
-120 -61 -63 -86 -82 -95 -75 -9 8 -17 8 -27 0 -12 -8 -12 -9 3 -4 26 8 21
-18 -9 -40 -14 -10 -31 -30 -38 -43 -11 -20 -14 -21 -19 -7 -4 9 -2 16 4 16 6
0 7 5 3 11 -11 18 -23 -10 -18 -45 3 -26 1 -28 -7 -13 -6 10 -8 21 -5 24 3 4
1 12 -5 20 -9 10 -8 13 0 13 7 0 9 5 6 10 -3 6 -1 10 5 10 6 0 8 5 5 10 -3 6
-2 10 3 10 5 0 9 6 9 14 0 8 6 28 13 45 10 25 17 30 34 25 19 -5 19 -5 4 7
-18 15 -24 2 199 462 l87 178 78 -2 c43 -2 78 -7 78 -11z"/>
<path d="M31215 21951 c-110 -32 -164 -75 -150 -119 10 -35 65 -102 98 -122
57 -35 165 -21 221 28 10 9 32 34 47 56 l28 38 -29 43 c-66 96 -102 109 -215
76z"/>
<path d="M33744 21915 c-11 -17 -14 -35 -10 -60 10 -50 32 -68 74 -61 65 10
85 47 61 115 -10 29 -14 31 -60 31 -41 0 -51 -4 -65 -25z"/>
<path d="M34135 21876 l-60 -33 -8 -119 c-8 -108 -7 -119 9 -131 10 -8 24 -11
31 -9 6 3 28 8 47 12 l36 6 0 -47 0 -48 73 7 c148 14 152 17 182 149 15 66 15
69 -5 97 -50 71 -167 150 -221 150 -13 0 -51 -15 -84 -34z"/>
<path d="M31797 21829 c-21 -5 -52 -16 -70 -25 -33 -17 -107 -83 -107 -96 0
-24 177 -49 209 -29 12 8 41 106 41 144 0 19 -14 20 -73 6z"/>
<path d="M30217 21620 c-88 -160 -192 -290 -204 -254 -2 5 -12 24 -23 42 l-20
32 -179 0 -179 0 35 -107 c78 -248 163 -621 197 -868 23 -164 23 -165 25 -125
2 47 11 80 23 80 5 0 37 -16 70 -35 l61 -36 -7 33 c-4 18 -10 54 -13 80 -6 48
-6 48 33 64 35 15 48 15 165 -2 96 -13 140 -15 177 -7 29 6 57 6 66 1 9 -5 19
-4 25 4 6 7 24 29 41 49 24 30 37 64 65 183 51 212 44 202 174 281 61 37 111
70 111 74 0 4 -25 42 -55 85 l-55 79 38 27 c20 14 80 56 132 92 103 71 200
154 200 170 0 15 -173 2 -325 -23 -66 -12 -205 -42 -310 -69 -104 -27 -192
-46 -195 -44 -2 3 -7 71 -10 152 l-5 147 -58 -105z"/>
<path d="M11340 21668 c-50 -6 -79 -14 -87 -25 -8 -11 -13 -52 -13 -113 0 -90
2 -98 25 -120 28 -26 83 -29 198 -10 37 6 72 8 77 5 10 -6 73 92 124 193 20
39 36 74 36 77 0 8 -278 3 -360 -7z"/>
<path d="M13090 21008 c-12 -36 -24 -100 -27 -150 l-6 -88 82 0 c45 0 91 5
102 10 38 21 63 102 52 172 -5 34 -11 40 -83 78 -43 22 -83 40 -88 40 -6 0
-20 -28 -32 -62z"/>
<path d="M30730 20519 c-42 -17 -60 -40 -60 -76 0 -71 76 -104 184 -79 50 12
56 12 44 0 -9 -9 -13 -27 -10 -44 5 -36 53 -52 81 -26 24 22 16 74 -13 82 -15
4 -30 26 -51 77 l-30 72 -60 2 c-33 1 -71 -2 -85 -8z"/>
<path d="M32184 19750 c-65 -32 -141 -79 -169 -103 l-50 -44 -3 -118 -4 -117
53 7 c55 7 274 61 290 71 5 3 -3 28 -17 57 -41 79 -45 102 -27 145 38 91 62
162 55 162 -5 0 -62 -27 -128 -60z"/>
<path d="M35198 19793 c-28 -30 -40 -75 -40 -143 0 -82 9 -103 67 -167 47 -54
162 -120 215 -125 l25 -3 -1 115 c-1 140 -23 209 -84 264 -67 60 -155 89 -182
59z"/>
<path d="M31315 19761 l-40 -6 -3 -64 c-3 -62 11 -121 29 -121 5 0 10 19 10
43 1 23 4 55 8 70 6 27 7 26 40 -33 38 -70 78 -100 133 -100 30 0 44 8 82 47
25 25 46 50 46 55 0 4 -45 8 -100 8 -55 0 -100 3 -100 8 0 4 6 16 13 27 8 11
22 32 32 48 l17 27 -63 -1 c-35 -1 -82 -5 -104 -8z"/>
<path d="M13905 19726 c82 -73 220 -123 354 -129 69 -3 173 6 215 19 18 6 17
8 -10 22 -112 59 -318 108 -489 117 l-110 6 40 -35z"/>
<path d="M13137 19592 c-22 -23 -26 -33 -20 -65 5 -31 12 -40 40 -52 32 -14
37 -13 64 6 22 16 29 28 29 55 0 32 -28 74 -49 74 -5 0 -16 2 -23 5 -8 3 -26
-7 -41 -23z"/>
<path d="M31551 18053 c-6 -27 -15 -77 -20 -112 l-8 -64 71 7 c104 10 158 18
181 26 17 6 14 13 -35 62 -50 49 -155 128 -171 128 -4 0 -12 -21 -18 -47z"/>
<path d="M31778 17073 l-15 -40 46 -30 c71 -47 205 -107 325 -147 60 -20 110
-35 112 -33 2 2 -25 39 -60 83 -106 131 -206 193 -326 202 l-66 4 -16 -39z"/>
<path d="M32774 16983 c22 -90 38 -134 56 -143 10 -5 44 -10 75 -10 l56 0 -3
62 -3 62 -85 27 c-107 34 -103 34 -96 2z"/>
<path d="M12680 16845 c-8 -2 -36 -7 -63 -10 l-47 -6 -51 -101 c-116 -232
-149 -419 -102 -592 13 -48 23 -63 55 -87 88 -63 238 -80 353 -40 172 61 317
223 356 399 11 48 10 61 -9 120 -30 93 -84 179 -157 252 l-62 61 -129 4 c-71
2 -136 2 -144 0z"/>
<path d="M15140 16536 c0 -28 62 -107 112 -141 29 -19 82 -45 118 -56 62 -19
301 -61 309 -54 8 8 -42 75 -88 118 -93 87 -212 130 -388 142 -46 3 -63 0 -63
-9z"/>
<path d="M31050 16517 c0 -9 5 -29 12 -44 37 -85 104 -130 239 -163 92 -22
119 -24 119 -11 0 4 -33 42 -74 84 -82 83 -168 133 -248 143 -40 6 -48 4 -48
-9z"/>
<path d="M30530 16214 c-22 -25 -30 -43 -27 -58 42 -169 97 -377 105 -397 11
-28 55 -65 60 -51 1 5 -11 73 -28 152 -17 79 -39 197 -50 263 -11 66 -21 122
-24 124 -2 2 -18 -13 -36 -33z"/>
<path d="M14131 16161 c-8 -5 -16 -32 -19 -64 -4 -51 -2 -56 22 -72 32 -21 94
-14 113 12 16 22 17 105 1 121 -14 14 -96 16 -117 3z"/>
<path d="M31068 16124 c-38 -11 -12 -102 40 -146 39 -33 119 -63 203 -78 35
-6 74 -13 87 -15 29 -7 28 5 -4 69 -31 63 -86 121 -139 148 -39 21 -149 33
-187 22z"/>
<path d="M32932 15723 c-69 -47 -268 -240 -305 -296 -32 -48 -75 -163 -64
-173 6 -7 271 282 332 365 51 67 91 131 82 131 -2 0 -22 -12 -45 -27z"/>
<path d="M13262 15710 c-24 -5 -83 -31 -130 -57 -185 -101 -300 -145 -427
-166 -41 -6 -75 -15 -75 -19 0 -13 62 -51 108 -65 83 -25 357 -24 565 2 220
29 301 33 532 30 256 -3 432 5 558 25 119 19 217 41 217 50 0 17 -75 70 -119
85 -64 22 -167 19 -337 -11 -195 -34 -247 -30 -390 29 -177 73 -268 98 -369
102 -49 2 -109 0 -133 -5z"/>
<path d="M22753 15632 c-434 -232 -997 -476 -1390 -603 -57 -18 -103 -36 -103
-40 0 -7 228 -249 500 -530 132 -136 274 -267 459 -423 l144 -121 206 -12
c326 -20 1256 -27 1698 -14 l388 12 25 30 c14 17 74 106 133 197 102 157 270
477 346 659 34 82 39 73 -64 93 -227 44 -623 157 -900 257 -293 106 -743 305
-1102 487 l-181 92 -159 -84z"/>
<path d="M14807 15613 c-26 -7 -110 -135 -94 -144 14 -8 148 -26 261 -35 l80
-7 -41 49 c-62 73 -115 122 -146 133 -30 11 -31 12 -60 4z"/>
<path d="M12220 15459 c-36 -5 -99 -13 -140 -17 l-75 -7 33 -23 c89 -64 214
-77 437 -45 66 9 122 18 124 20 9 6 -24 33 -67 54 -55 26 -201 34 -312 18z"/>
<path d="M11300 15447 c-3 -2 -50 -7 -105 -10 -116 -8 -344 -26 -395 -32 -50
-5 -269 -14 -520 -20 -184 -5 -322 -20 -333 -36 -2 -2 -22 -30 -46 -62 -24
-33 -39 -62 -35 -67 18 -15 105 -30 177 -30 40 0 159 11 263 24 223 29 280 34
479 41 266 9 440 17 445 20 3 2 84 6 180 9 221 8 346 22 429 48 71 22 186 76
178 84 -2 3 -53 11 -113 18 -99 12 -593 23 -604 13z"/>
<path d="M28824 15040 c-12 -5 -27 -24 -34 -44 -10 -31 -9 -38 12 -66 20 -28
27 -31 58 -25 46 9 47 10 60 50 10 31 9 39 -10 65 -22 31 -46 36 -86 20z"/>
<path d="M12899 14718 c-15 -13 -29 -34 -32 -47 -7 -27 17 -81 36 -81 6 0 22
-3 34 -6 30 -8 73 35 73 74 0 27 -31 72 -50 72 -4 0 -14 2 -22 5 -7 3 -25 -5
-39 -17z"/>
<path d="M31240 14657 c0 -10 218 -304 316 -427 90 -112 254 -284 254 -266 0
5 -28 61 -61 125 -141 266 -281 428 -481 556 -16 9 -28 15 -28 12z"/>
<path d="M12069 14503 c-14 -3 -49 -62 -49 -82 0 -5 12 -11 28 -14 75 -15 146
-51 203 -105 l60 -56 25 30 c35 40 114 160 114 172 0 28 -314 73 -381 55z"/>
<path d="M11815 14288 c-136 -25 -260 -77 -357 -151 -20 -15 -21 -17 -3 -13
11 3 58 8 105 11 191 14 265 40 305 109 37 63 39 61 -50 44z"/>
<path d="M10634 14028 c-33 -8 -94 -68 -94 -92 0 -23 38 -48 73 -48 86 0 172
91 123 131 -18 15 -64 19 -102 9z"/>
<path d="M10344 13925 c-34 -8 -151 -26 -260 -40 -109 -14 -240 -34 -290 -45
-102 -21 -246 -86 -242 -109 2 -7 20 -28 41 -45 33 -26 47 -31 90 -30 51 2
517 118 650 163 68 23 82 37 101 99 9 26 1 27 -90 7z"/>
<path d="M28033 13856 c-35 -30 -53 -83 -53 -158 l0 -55 38 -7 c48 -8 117 -7
166 1 l38 6 -7 66 c-8 77 -35 145 -63 160 -36 19 -88 13 -119 -13z"/>
<path d="M19238 13826 c-100 -36 -178 -105 -199 -176 -44 -147 165 -175 321
-43 40 33 90 109 90 136 0 28 -30 74 -57 86 -32 15 -110 13 -155 -3z"/>
<path d="M15908 13800 c-95 -16 -146 -39 -179 -81 -17 -22 -30 -42 -28 -44 7
-7 207 14 251 26 24 6 59 19 78 29 33 17 90 65 90 75 0 8 -160 3 -212 -5z"/>
<path d="M13320 13700 c-492 -64 -753 -110 -1027 -179 -136 -35 -242 -47 -473
-56 -195 -8 -305 -20 -398 -46 -93 -25 -123 -40 -157 -81 -34 -40 -90 -156
-80 -166 4 -4 95 -7 203 -6 190 1 206 2 442 47 135 25 317 57 405 72 208 34
306 60 522 141 205 76 310 105 496 135 212 34 325 78 396 153 l24 26 -34 -1
c-19 -1 -162 -18 -319 -39z"/>
<path d="M6990 13573 c-159 -20 -487 -81 -640 -119 -143 -36 -260 -86 -300
-129 l-24 -26 44 7 c25 3 162 26 305 50 143 24 370 61 503 82 l244 37 -6 43
c-10 71 -8 70 -126 55z"/>
<path d="M21510 13533 c-62 -67 -170 -210 -170 -225 0 -5 10 -6 23 -3 42 13
97 55 131 102 32 45 84 169 74 179 -3 2 -29 -21 -58 -53z"/>
<path d="M8675 13564 c-11 -2 -44 -9 -72 -15 -58 -11 -58 -11 -46 -94 l6 -48
101 7 c128 9 167 14 241 33 63 15 185 70 185 83 0 21 -347 50 -415 34z"/>
<path d="M18116 13480 c-43 -11 -120 -36 -170 -54 -50 -19 -115 -42 -143 -51
-29 -10 -53 -22 -53 -28 0 -13 50 -87 59 -87 3 0 4 -38 2 -85 -2 -59 0 -85 8
-85 19 0 131 49 200 87 35 19 149 65 255 101 105 35 193 66 195 68 2 2 -8 23
-23 48 -56 96 -172 126 -330 86z"/>
<path d="M15030 13436 c-99 -38 -157 -67 -220 -109 -64 -43 -131 -99 -126
-104 8 -8 213 51 394 114 107 38 114 44 89 92 -20 40 -45 42 -137 7z"/>
<path d="M5540 13274 c-36 -8 -101 -21 -144 -29 -87 -16 -346 -91 -359 -105
-14 -13 41 -88 61 -84 9 2 67 13 127 25 61 11 196 41 300 65 105 24 212 49
238 55 47 11 48 12 30 31 -46 51 -139 67 -253 42z"/>
<path d="M16725 13130 c-104 -21 -229 -110 -261 -185 -23 -56 -18 -112 12
-140 51 -48 127 -56 225 -25 205 64 300 284 148 344 -43 17 -62 18 -124 6z"/>
<path d="M14335 12975 c-21 -8 -57 -33 -81 -56 -48 -47 -49 -59 -12 -132 37
-74 105 -75 187 -1 28 25 51 53 51 62 0 10 -11 40 -24 68 -29 63 -62 79 -121
59z"/>
<path d="M14904 12964 c-108 -38 -164 -159 -114 -242 36 -59 110 -76 208 -47
199 60 202 307 3 304 -31 0 -74 -7 -97 -15z"/>
<path d="M19503 12891 c-45 -15 -89 -34 -98 -41 -18 -15 -41 -93 -50 -170 -3
-30 -8 -67 -11 -82 -5 -26 -3 -28 26 -28 57 0 110 40 146 110 22 44 84 240 76
239 -4 0 -44 -13 -89 -28z"/>
<path d="M15367 12811 c-195 -99 -381 -263 -472 -419 -25 -42 -45 -79 -45 -82
0 -3 21 -16 46 -28 l45 -22 92 31 c127 43 320 129 455 200 120 64 451 255 465
269 21 19 -342 100 -450 100 -25 0 -70 -16 -136 -49z"/>
<path d="M22273 12390 c-72 -32 -343 -255 -343 -281 0 -15 59 -99 70 -99 18 0
188 120 251 178 61 56 122 129 164 195 l17 27 -60 -1 c-33 -1 -78 -9 -99 -19z"/>
<path d="M27485 12300 c-42 -46 -5 -140 55 -140 36 0 70 38 70 79 0 66 -84
107 -125 61z"/>
<path d="M19613 12076 c-44 -37 -84 -119 -86 -174 -2 -66 46 -161 118 -234 46
-46 66 -59 106 -67 95 -21 187 -9 216 26 8 10 28 47 46 83 27 56 31 75 31 145
0 95 -17 125 -99 179 -66 44 -142 66 -231 66 -62 0 -77 -3 -101 -24z"/>
<path d="M14880 12024 c-96 -28 -126 -46 -155 -95 -23 -39 -26 -125 -11 -291
5 -58 5 -98 0 -98 -5 0 -81 37 -169 81 l-160 81 -3 -33 c-3 -28 20 -182 34
-231 5 -18 20 -18 194 4 178 22 249 61 340 183 95 128 131 262 107 388 -8 36
-9 37 -50 36 -23 0 -80 -11 -127 -25z"/>
<path d="M28745 11981 c-85 -21 -165 -93 -165 -149 0 -113 183 -114 285 -1 47
52 48 96 4 133 -31 27 -65 31 -124 17z"/>
<path d="M20957 11831 c-187 -77 -294 -188 -502 -516 -86 -136 -284 -407 -459
-630 -48 -60 -116 -153 -151 -205 -73 -108 -161 -270 -148 -270 26 0 165 136
274 267 68 81 166 189 218 238 53 50 141 135 197 190 l100 100 58 137 c105
248 138 288 323 390 53 29 118 74 145 100 l49 48 -5 91 c-3 51 -7 93 -8 94 -2
1 -42 -14 -91 -34z"/>
<path d="M12326 11581 c-46 -6 -51 -9 -79 -55 l-30 -49 23 -43 c21 -41 26 -44
64 -44 23 0 50 3 61 6 21 5 75 83 75 107 0 16 -49 87 -58 85 -4 0 -29 -4 -56
-7z"/>
<path d="M18415 11414 c-79 -64 -98 -87 -139 -164 -35 -67 -81 -201 -74 -220
6 -19 126 107 177 185 48 73 107 213 99 235 -2 7 -29 -8 -63 -36z"/>
<path d="M11100 11371 c-27 -5 -40 -16 -64 -54 l-30 -49 23 -44 c25 -46 29
-48 103 -38 42 6 47 10 74 59 l28 53 -27 41 c-28 43 -35 45 -107 32z"/>
<path d="M10539 11035 c-29 -16 -86 -95 -96 -133 -4 -18 3 -32 28 -58 67 -70
142 -61 199 22 52 74 55 93 23 126 -54 57 -104 70 -154 43z"/>
<path d="M35850 10675 l0 -115 45 0 45 0 0 115 0 115 -45 0 -45 0 0 -115z"/>
<path d="M26468 10623 c-43 -4 -48 -7 -57 -36 -19 -59 -31 -150 -31 -228 0
-80 25 -248 39 -262 9 -9 91 -23 91 -16 1 2 9 65 19 139 19 141 27 339 15 384
-3 14 -11 25 -18 24 -6 -1 -32 -3 -58 -5z"/>
<path d="M17747 10540 c-117 -53 -130 -62 -161 -121 -24 -43 -86 -258 -86
-297 0 -19 115 64 165 120 61 68 114 151 146 227 34 84 42 111 32 110 -4 0
-47 -18 -96 -39z"/>
<path d="M27490 10166 c0 -21 7 -84 15 -140 20 -138 24 -197 15 -245 l-7 -40
31 16 c166 83 169 208 12 378 l-65 70 -1 -39z"/>
<path d="M19590 10111 c-88 -70 -118 -104 -275 -316 -93 -125 -166 -209 -340
-385 -238 -243 -317 -344 -394 -511 -37 -80 -101 -258 -101 -281 0 -13 74 30
174 101 87 62 258 227 322 312 51 67 79 118 128 234 96 227 107 245 258 405
114 121 173 195 227 285 37 60 84 180 79 202 -2 8 -30 -9 -78 -46z"/>
<path d="M17054 9628 c-142 -145 -223 -237 -429 -488 -254 -309 -332 -397
-545 -615 -251 -256 -335 -375 -388 -545 -27 -87 -40 -226 -21 -215 8 5 68 52
134 106 347 282 507 464 641 731 65 129 177 298 335 503 202 264 285 387 355
532 24 50 44 94 44 97 0 17 -25 -4 -126 -106z"/>
<path d="M22989 9713 c-8 -2 -27 -25 -41 -51 -29 -55 -23 -85 22 -101 52 -18
100 27 100 95 0 44 -34 68 -81 57z"/>
<path d="M23521 9494 c-26 -33 -26 -49 -1 -74 31 -31 69 -36 109 -14 45 24 51
55 17 89 -36 36 -97 35 -125 -1z"/>
<path d="M22891 9444 c-41 -52 -23 -134 30 -134 45 0 67 16 80 59 17 57 -3 95
-52 99 -30 3 -41 -2 -58 -24z"/>
<path d="M23075 9216 c-29 -29 -31 -46 -10 -86 27 -53 104 -51 135 3 14 25 13
30 -5 65 -17 31 -26 37 -57 40 -29 3 -43 -2 -63 -22z"/>
<path d="M5352 7822 c-28 -4 -42 -38 -42 -100 1 -132 133 -242 290 -242 l60 0
0 169 0 169 -43 6 c-44 7 -223 5 -265 -2z"/>
<path d="M15528 7663 c-80 -93 -112 -137 -162 -222 -39 -67 -118 -243 -111
-249 2 -2 31 11 65 29 80 42 144 115 191 214 35 76 94 274 87 295 -2 6 -33
-25 -70 -67z"/>
<path d="M18302 7635 c-68 -16 -164 -51 -285 -104 -513 -224 -823 -400 -1107
-627 -69 -55 -146 -115 -171 -132 -66 -45 -236 -128 -432 -211 -93 -39 -214
-94 -268 -122 l-100 -50 20 -27 c12 -15 31 -40 45 -56 l23 -28 109 52 c219
105 421 195 854 382 570 245 1018 462 1295 628 77 45 141 84 143 85 2 2 42
220 42 233 0 8 -80 -3 -168 -23z"/>
<path d="M14750 6682 c-16 -16 -32 -45 -35 -65 -14 -72 12 -116 71 -124 33 -4
45 -1 70 20 33 28 53 78 48 122 -8 74 -99 102 -154 47z"/>
<path d="M32293 6664 c-86 -43 -92 -155 -14 -233 45 -45 88 -57 136 -37 46 20
70 60 69 116 -2 110 -108 195 -191 154z"/>
<path d="M14448 6198 c-246 -287 -302 -356 -411 -501 -155 -206 -280 -416
-363 -610 -32 -75 -33 -77 -11 -72 12 3 72 17 132 31 419 96 703 182 860 259
56 28 156 94 265 176 96 72 226 165 288 206 61 41 112 78 112 82 0 4 -12 18
-26 32 -14 13 -57 63 -96 111 -38 47 -79 93 -91 101 -67 43 -188 60 -328 46
-163 -17 -229 -21 -229 -16 0 3 18 83 39 178 22 96 38 175 36 177 -1 2 -81
-88 -177 -200z"/>
<path d="M15591 6353 l-63 -4 6 -72 c8 -82 21 -169 38 -241 l11 -49 41 119
c23 65 45 127 49 137 6 17 21 11 142 -52 74 -39 135 -68 135 -63 0 12 -118
210 -129 217 -14 8 -154 13 -230 8z"/>
<path d="M15172 6210 c-105 -48 -67 -175 59 -198 63 -12 109 1 142 39 24 26
28 38 23 67 -7 45 -46 86 -95 101 -53 15 -79 14 -129 -9z"/>
<path d="M20425 5991 c-25 -5 -31 -13 -39 -48 -17 -83 16 -121 96 -108 32 6
39 12 47 41 13 46 5 85 -20 107 -22 18 -34 19 -84 8z"/>
</g>
</svg>
